<svg id="svg_canvas" data-noselect="" viewBox="0 0 800 600" width="800" height="600" preserveAspectRatio="none" version="1.1" xmlns="http://www.w3.org/2000/svg" xmlns:xlink="http://www.w3.org/1999/xlink"><defs></defs>  <g id="shape_VKjdg6ILik" transform="translate(319.25534671272,224.20925918116) rotate(0,64.244941689574,75.790740818839) scale(1,1)" filter="" style="cursor: move; opacity: 1;"><g><rect fill="rgba(0,0,0,0)" width="148.48988337915" height="171.58148163768" x="-10" y="-10"></rect><svg version="1.1" id="图层_1" xmlns="http://www.w3.org/2000/svg" xmlns:xlink="http://www.w3.org/1999/xlink" x="0px" y="0px" viewBox="0 0 168.6 198.9" style="enable-background:new 0 0 168.6 198.9;" xml:space="preserve" width="128.48988337915" height="151.58148163768" class="style-removed" preserveAspectRatio="none" data-parent="shape_VKjdg6ILik">

<path d="M48.8,78c1.2-2.9,2.7-5.7,4.5-8.4c1.6-2.5,3.4-4.8,5.3-6.9c5.8-6.4,13-11.4,21.2-14.5c2.1-0.8,4.3-1.5,6.6-2
	c4.1-1,8.4-1.5,12.9-1.5c4.4,0,8.7,0.5,12.8,1.5c2.9,0.7,5.7,1.6,8.4,2.7c7.9,3.3,14.8,8.4,20.3,14.8l1.4-0.9l25.8-16.5
	c-2.3-3-4.7-5.8-7.4-8.4l8-10.9l-20.7-15.2l-8.1,10.9c-8.5-4.4-17.8-7.5-27.7-8.8V0H86.4v14.3c-8.6,1.5-16.8,4.2-24.3,8.1l-8.4-12.3
	L32.5,24.6l8.8,12.8c-6.6,6.5-12.1,14-16.3,22.3L9.7,54.3L1.1,78.6l15.9,5.6c-0.7,4.4-1.1,8.9-1.1,13.5c0,3.9,0.3,7.7,0.8,11.5
	L0,113.9l6.9,24.7l17.2-4.8c4.2,8.8,9.8,16.7,16.5,23.5L29.9,172l20.7,15.2l10.7-14.5c7.7,4.1,16.2,7,25.1,8.5v17.8h25.7v-17.3
	c8.2-1.1,16-3.4,23.2-6.6l9.5,13.9l21.2-14.5l-9.1-13.3c3.3-2.9,6.3-6.1,9.1-9.4l-25.4-16.1c-0.2,0.2-0.4,0.5-0.6,0.7
	c-5.8,6.4-13,11.4-21.2,14.5c-2.1,0.8-4.3,1.5-6.6,2c-4.1,1-8.4,1.5-12.8,1.5c-4.4,0-8.7-0.5-12.9-1.5c-2.9-0.7-5.7-1.6-8.4-2.7
	c-8.1-3.4-15.1-8.7-20.7-15.2c-2.2-2.6-4.2-5.5-5.9-8.5c-1.1-1.9-2-3.8-2.8-5.9l-17.5-15.1l-7.7-6.6l10.5-8.5L48.8,78z" fill="#0016F4" stroke-width="0"></path>
</svg></g></g><g id="shape_lmZStNXYyL" transform="translate(309.27465328728,86.07082086521004) rotate(0,115.47,213.91) scale(1,1)" filter="" style="cursor: move; opacity: 1;"><g><svg xmlns="http://www.w3.org/2000/svg" version="1.1" xmlns:xlink="http://www.w3.org/1999/xlink" width="349.88" height="427.82" viewBox="0 0 349.88 427.82"><g data-width="111.50625" transform="translate(59.47, 0)"><path d="M12.85 0L12.85-32.59L0.24-32.59L0.24-39.67L34.43-39.67L34.43-32.59L21.29-32.59L21.29 0L12.85 0Z" transform="translate(0 234.41) " fill="#0016f4" stroke="#0016f4" stroke-width="0.099" data-glyph-w="34.73048" data-glyph-h="59.47" data-glyph-ascender="51.08473" data-glyph-descender="-8.38527"></path><path d="M22.06-7.08L34.20-7.08L34.20 0L20.34 0Q16.41 0 14.33-0.42L14.33-0.42Q7.02-1.84 3.93-8.56L3.93-8.56Q1.90-13.08 1.90-19.74L1.90-19.74Q1.90-27.71 5.00-32.71L5.00-32.71Q7.26-36.34 11.03-38.00Q14.81-39.67 20.76-39.67L20.76-39.67L34.20-39.67L34.20-32.59L21.71-32.59Q16.06-32.59 13.44-29.56L13.44-29.56Q11.24-27.06 11.24-20.52L11.24-20.52Q11.24-11.72 14.63-8.98L14.63-8.98Q17.01-7.08 22.06-7.08L22.06-7.08Z" transform="translate(34.73048 234.41) " fill="#0016f4" stroke="#0016f4" stroke-width="0.099" data-glyph-w="36.03882" data-glyph-h="59.47" data-glyph-ascender="51.08473" data-glyph-descender="-8.38527"></path><path d="M26.05-13.86L12.49-13.86L12.49 0L4.04 0L4.04-39.67L23.85-39.67Q29.26-39.67 31.58-38.89L31.58-38.89Q35.50-37.59 37.76-33.48L37.76-33.48Q39.43-30.39 39.43-26.76L39.43-26.76Q39.43-23.73 38.33-21.02Q37.23-18.32 35.27-16.59L35.27-16.59Q33.48-15.05 31.49-14.45Q29.50-13.86 26.05-13.86L26.05-13.86ZM12.49-32.59L12.49-20.93L23.97-20.93Q27.06-20.93 28.31-21.88L28.31-21.88Q30.15-23.37 30.15-27.06L30.15-27.06Q30.15-31.04 27.36-32.17L27.36-32.17Q26.35-32.59 24.14-32.59L24.14-32.59L12.49-32.59Z" transform="translate(70.7693 234.41) " fill="#0016f4" stroke="#0016f4" stroke-width="0.099" data-glyph-w="40.73695" data-glyph-h="59.47" data-glyph-ascender="51.08473" data-glyph-descender="-8.38527"></path></g></svg></g></g> <g id="rectBox"><rect id="rect_shape_VKjdg6ILik" width="128.48988337915" height="151.58148163768" transform="translate(319.25534671272,224.20925918116) rotate(0,64.244941689574,75.790740818839) scale(1,1)" fill="rgba(0,0,0,0)" stroke="transparent" style="cursor: move;"></rect><rect id="rect_shape_lmZStNXYyL" width="112" height="71" transform="translate(368.74465328728,264.48082086521003) rotate(0,56,35.5) scale(1,1)" fill="rgba(0,0,0,0)" stroke="transparent" style="cursor: move;"></rect></g> <!----></svg>